<?xml version="1.0" standalone="no"?><!DOCTYPE svg PUBLIC "-//W3C//DTD SVG 1.1//EN" "http://www.w3.org/Graphics/SVG/1.1/DTD/svg11.dtd"><svg t="1714799103377" class="icon" viewBox="0 0 1024 1024" version="1.1" xmlns="http://www.w3.org/2000/svg" p-id="1301" xmlns:xlink="http://www.w3.org/1999/xlink" width="200" height="200"><path d="M496.64 194.56a56.32 56.32 0 0 1 56.32 56.32V286.72a20.48 20.48 0 0 0 20.48 20.48h225.28a81.92 81.92 0 0 1 81.92 81.92v358.4a81.92 81.92 0 0 1-81.92 81.92H225.28a81.92 81.92 0 0 1-81.92-81.92V276.48a81.92 81.92 0 0 1 81.92-81.92h271.36zM819.2 522.24H204.8v225.28a20.48 20.48 0 0 0 20.48 20.48h573.44a20.48 20.48 0 0 0 20.48-20.48V522.24zM491.52 256H225.28a20.48 20.48 0 0 0-20.48 20.48v184.32h614.4v-71.68a20.48 20.48 0 0 0-20.48-20.48H573.44a81.92 81.92 0 0 1-81.92-81.92v-30.72z" fill="#3733A1" p-id="1302"></path></svg>